PathFileType	4	(X/Y/Z)	C:\Users\Caesar\Desktop\毕业设计\1-评估老年人缺少的力\Data\s4\S4_T_02_fixed.trc	Maker trajectories (.TRC) by Lee-Son ToolBox																																																																																				
DataRate	CameraRate	NumFrames	NumMarkers	Units	OrigDataRate	OrigDataStartFrame	OrigNumFrames																																																																																	
100	100	12	29	mm	100	626	1000																																																																																	
Frame#	Time	Unlabeled27			Unlabeled48			Unlabeled26			HEAD			C7			T10			STERN			LSHO			LELB			RSHO			RELB			LASI			RASI			LPSI			RPSI			LHIP			LTHI			LKNE			LTIB			LANK			LHEE			LTOE			RHIP			RTHI			RKNE			RTIB			RANK			RHEE			RTOE		
		X1	Y1	Z1	X2	Y2	Z2	X3	Y3	Z3	X4	Y4	Z4	X5	Y5	Z5	X6	Y6	Z6	X7	Y7	Z7	X8	Y8	Z8	X9	Y9	Z9	X10	Y10	Z10	X11	Y11	Z11	X12	Y12	Z12	X13	Y13	Z13	X14	Y14	Z14	X15	Y15	Z15	X16	Y16	Z16	X17	Y17	Z17	X18	Y18	Z18	X19	Y19	Z19	X20	Y20	Z20	X21	Y21	Z21	X22	Y22	Z22	X23	Y23	Z23	X24	Y24	Z24	X25	Y25	Z25	X26	Y26	Z26	X27	Y27	Z27	X28	Y28	Z28	X29	Y29	Z29
																																																																																								
626	6.25	764.893	168.382	1090.68	774.231	168.655	1794.91	214.395	171.185	1098.33	601.04	1634.28	1450.16	396.676	1477.54	1453.68	334.677	1348.16	1453.09	551.407	1356.45	1449.67	468.098	1475.46	1313.69	553.517	1203.53	1180.44	468.807	1461.22	1612.77	572.065	1167.49	1714.58	450.692	1014.8	1306.56	505.466	1006.28	1538.01	275.321	1085.4	1409.04	300.839	1082.9	1531.79	344.795	980.282	1279.05	321.655	755.694	1292.38	261.409	625.394	1303.5	99.7528	424.338	1318.48	9.96964	365.729	1331.08	-44.6408	363.538	1330.89	84.972	208.453	1364.54	441.223	982.951	1610.44	511.096	862.535	1575.96	549.424	629.722	1556.02	577.073	514.072	1544.13	544.306	271.657	1525.62	505.457	237.007	1519.88	719.013	237.408	1487.49
627	6.26	764.86	168.333	1090.72	774.239	168.648	1794.92	214.432	171.155	1098.35	601.323	1635.4	1451.64	397.737	1477.99	1455.51	335.998	1348.52	1454.57	552.789	1357.13	1451.15	469.091	1476.31	1315.29	553.448	1204.25	1181.35	470.236	1461.31	1614.54	572.362	1166.59	1715.44	452.501	1014.62	1308.05	506.935	1007.45	1539.38	276.904	1085.79	1409.33	302.183	1084.14	1532.14	346.816	979.735	1280.14	327.246	753.609	1293.99	269.099	622.455	1304.8	102.207	426.47	1318.94	10.9009	370.771	1331.15	-43.4628	371.646	1331.6	76.47	207.814	1364.69	442.424	984.577	1611.63	512.068	863.405	1577.22	548.726	629.836	1556.14	574.026	513.334	1543.81	534.421	271.816	1525.46	494.783	237.33	1520.06	708.648	235.091	1487.17
628	6.27	764.835	168.305	1090.74	774.245	168.644	1794.93	214.473	171.129	1098.37	601.579	1636.77	1453.08	398.78	1478.7	1457.21	337.238	1349.19	1455.91	554.126	1358.08	1452.65	470.14	1477.37	1316.82	553.438	1205.17	1182.3	471.591	1461.68	1616.17	572.622	1166.02	1716.13	454.263	1014.73	1309.62	508.176	1008.86	1540.91	278.297	1086.34	1409.51	303.218	1085.45	1532.41	348.852	979.417	1281.21	333.326	751.693	1295.53	277.625	619.622	1305.99	105.851	428.781	1319.37	13.1818	376.038	1331.13	-40.7726	379.97	1332.28	68.8454	207.49	1364.88	443.269	986.323	1612.87	512.681	864.26	1578.72	547.254	629.839	1556.56	570.209	512.628	1543.91	524.288	272.043	1525.43	484.046	237.565	1520.32	698.11	233.579	1487.1
629	6.28	764.818	168.291	1090.76	774.25	168.643	1794.94	214.509	171.109	1098.39	601.798	1638.33	1454.47	399.761	1479.63	1458.77	338.37	1350.11	1457.09	555.398	1359.29	1454.15	471.191	1478.62	1318.28	553.493	1206.31	1183.27	472.816	1462.34	1617.64	572.84	1165.81	1716.67	455.925	1015.14	1311.2	509.206	1010.43	1542.55	279.483	1087.02	1409.68	303.999	1086.78	1532.68	350.831	979.346	1282.25	339.765	750.041	1296.96	286.809	617.015	1307.09	110.64	431.244	1319.8	16.7775	381.423	1331.04	-36.6383	388.266	1332.86	62.4634	207.657	1365.16	443.834	988.092	1614.14	512.934	864.985	1580.38	544.964	629.67	1557.28	565.63	511.883	1544.41	514.003	272.281	1525.51	473.284	237.743	1520.64	687.481	232.622	1487.21
630	6.29	764.809	168.287	1090.77	774.254	168.642	1794.94	214.534	171.098	1098.4	601.97	1640.04	1455.78	400.639	1480.75	1460.17	339.372	1351.23	1458.14	556.592	1360.73	1455.62	472.184	1480.03	1319.66	553.618	1207.65	1184.23	473.872	1463.25	1618.95	573.02	1165.95	1717.09	457.443	1015.85	1312.74	510.047	1012.12	1544.22	280.463	1087.81	1409.91	304.601	1088.1	1533	352.685	979.54	1283.28	346.428	748.736	1298.26	296.476	614.745	1308.12	116.49	433.825	1320.22	21.5942	386.791	1330.9	-31.2164	396.258	1333.28	57.7729	208.482	1365.6	444.194	989.804	1615.41	512.816	865.499	1582.14	541.857	629.312	1558.25	560.338	511.065	1545.24	503.638	272.496	1525.65	462.518	237.897	1521.03	676.818	232.009	1487.42
631	6.3	764.804	168.289	1090.77	774.257	168.643	1794.95	214.543	171.098	1098.41	602.087	1641.86	1457.03	401.383	1482.03	1461.41	340.228	1352.52	1459.06	557.698	1362.38	1457.01	473.06	1481.56	1320.95	553.82	1209.19	1185.17	474.738	1464.4	1620.11	573.176	1166.44	1717.4	458.785	1016.86	1314.18	510.722	1013.85	1545.85	281.255	1088.73	1410.27	305.101	1089.41	1533.42	354.36	980.012	1284.29	353.193	747.836	1299.45	306.469	612.904	1309.13	123.281	436.487	1320.67	27.4947	391.999	1330.77	-24.7301	403.682	1333.5	55.2528	210.074	1366.24	444.414	991.407	1616.62	512.316	865.767	1583.93	537.983	628.791	1559.41	554.408	510.18	1546.29	493.243	272.678	1525.84	451.76	238.061	1521.45	666.156	231.584	1487.7
632	6.31	764.803	168.294	1090.77	774.258	168.645	1794.95	214.539	171.107	1098.42	602.143	1643.77	1458.18	401.971	1483.45	1462.5	340.93	1353.93	1459.89	558.703	1364.22	1458.32	473.775	1483.2	1322.13	554.102	1210.91	1186.1	475.413	1465.76	1621.13	573.328	1167.26	1717.64	459.936	1018.15	1315.49	511.253	1015.57	1547.37	281.889	1089.79	1410.78	305.557	1090.72	1533.96	355.826	980.772	1285.28	359.962	747.379	1300.54	316.666	611.559	1310.15	130.885	439.191	1321.17	34.3287	396.907	1330.7	-17.4185	410.309	1333.5	55.3107	212.42	1367.12	444.536	992.874	1617.77	511.431	865.805	1585.71	533.425	628.156	1560.68	547.926	509.265	1547.49	482.844	272.832	1526.04	441.011	238.265	1521.91	655.511	231.242	1487.99
633	6.32	764.804	168.302	1090.76	774.259	168.649	1794.95	214.523	171.126	1098.43	602.131	1645.74	1459.22	402.396	1484.97	1463.47	341.48	1355.43	1460.67	559.593	1366.23	1459.51	474.296	1484.91	1323.2	554.467	1212.78	1187	475.909	1467.28	1622.05	573.497	1168.37	1717.81	460.902	1019.7	1316.65	511.661	1017.25	1548.74	282.401	1090.99	1411.45	305.996	1092.09	1534.64	357.075	981.82	1286.24	366.675	747.377	1301.55	326.975	610.75	1311.18	139.19	441.885	1321.71	41.9664	401.393	1330.7	-9.47809	415.965	1333.3	58.1716	215.359	1368.23	444.586	994.205	1618.81	510.173	865.662	1587.42	528.278	627.473	1562	540.973	508.369	1548.74	472.45	272.972	1526.24	430.269	238.525	1522.38	644.882	230.918	1488.29
634	6.33	764.806	168.312	1090.76	774.259	168.657	1794.95	214.496	171.156	1098.42	602.045	1647.75	1460.15	402.658	1486.59	1464.33	341.882	1357.02	1461.41	560.343	1368.36	1460.59	474.608	1486.67	1324.15	554.913	1214.77	1187.88	476.251	1468.95	1622.88	573.7	1169.74	1717.93	461.705	1021.48	1317.68	511.96	1018.86	1549.96	282.825	1092.36	1412.24	306.425	1093.53	1535.42	358.126	983.144	1287.15	373.311	747.827	1302.5	337.329	610.489	1312.23	148.112	444.496	1322.31	50.3144	405.345	1330.77	-1.03444	420.54	1332.95	63.8279	218.614	1369.45	444.566	995.417	1619.75	508.568	865.409	1589.02	522.637	626.801	1563.31	533.615	507.541	1549.98	462.059	273.111	1526.42	419.533	238.846	1522.84	634.263	230.579	1488.58
635	6.34	764.808	168.324	1090.76	774.258	168.667	1794.95	214.459	171.199	1098.41	601.879	1649.8	1460.95	402.768	1488.29	1465.11	342.149	1358.66	1462.16	560.927	1370.58	1461.56	474.713	1488.47	1324.99	555.431	1216.85	1188.76	476.47	1470.74	1623.66	573.945	1171.33	1718.01	462.373	1023.47	1318.61	512.156	1020.39	1551.04	283.182	1093.88	1413.12	306.828	1095.06	1536.27	359.015	984.721	1287.99	379.868	748.707	1303.4	347.69	610.756	1313.3	157.591	446.938	1322.93	59.305	408.666	1330.88	7.84462	423.978	1332.5	72.0883	221.879	1370.67	444.468	996.536	1620.59	506.661	865.111	1590.46	516.581	626.183	1564.57	525.905	506.817	1551.19	451.667	273.26	1526.57	408.805	239.209	1523.24	623.647	230.212	1488.87
636	6.35	764.809	168.339	1090.76	774.256	168.679	1794.95	214.415	171.255	1098.38	601.63	1651.86	1461.6	402.737	1490.05	1465.85	342.295	1360.37	1462.94	561.32	1372.87	1462.45	474.619	1490.28	1325.74	556.01	1218.99	1189.64	476.595	1472.64	1624.38	574.231	1173.09	1718.05	462.938	1025.64	1319.47	512.252	1021.85	1552	283.483	1095.55	1414.01	307.178	1096.66	1537.15	359.79	986.521	1288.74	386.355	749.979	1304.26	358.032	611.513	1314.38	167.573	449.123	1323.55	68.8759	411.279	1331.01	17.119	426.26	1332.06	82.6806	224.884	1371.72	444.275	997.592	1621.33	504.5	864.822	1591.71	510.176	625.647	1565.75	517.891	506.221	1552.32	441.266	273.432	1526.69	398.094	239.581	1523.53	613.027	229.817	1489.14
637	6.36	764.807	168.357	1090.76	774.253	168.691	1794.95	214.371	171.313	1098.34	601.295	1653.92	1462.12	402.578	1491.86	1466.55	342.333	1362.12	1463.77	561.505	1375.18	1463.26	474.344	1492.09	1326.41	556.635	1221.18	1190.54	476.655	1474.62	1625.08	574.552	1175	1718.06	463.427	1027.93	1320.3	512.251	1023.26	1552.89	283.732	1097.33	1414.85	307.443	1098.31	1538	360.498	988.501	1289.38	392.783	751.602	1305.07	368.334	612.712	1315.47	177.998	450.978	1324.17	78.9655	413.128	1331.14	26.7618	427.389	1331.67	95.3395	227.445	1372.49	443.97	998.604	1621.98	502.134	864.569	1592.74	503.476	625.205	1566.83	509.622	505.759	1553.38	430.85	273.638	1526.8	387.405	239.933	1523.7	602.394	229.401	1489.41
